<svg width="87" height="30" viewBox="0 0 87 30" fill="none" xmlns="http://www.w3.org/2000/svg">
<g clip-path="url(#clip0_1335_8571)">
<path d="M17.8726 0C11.395 0 5.95071 4.55293 4.36112 10.74L0.108983 26.0123C-0.348023 27.667 0.575924 29.4039 2.18538 29.8767C3.7849 30.3494 5.45396 29.3936 5.91097 27.739C5.91097 27.739 5.91097 27.7184 5.91097 27.7081L7.04355 23.6485C9.60676 26.8859 13.5012 28.9517 17.8627 28.9517C25.592 28.9517 31.851 22.4769 31.851 14.481C31.851 6.4851 25.602 0 17.8726 0ZM17.8726 22.6927C13.4814 22.6927 9.91474 19.0134 9.91474 14.4604C9.91474 9.9075 13.4714 6.23844 17.8726 6.23844C22.2738 6.23844 25.8305 9.92806 25.8305 14.4604C25.8305 18.9928 22.2638 22.6927 17.8726 22.6927ZM86.5526 10.8428C84.9929 4.60432 79.5187 0 73.0014 0C64.7654 0 59.2416 5.7554 57.0956 14.4707C55.9034 18.9003 52.9031 22.703 47.4886 22.703C43.0973 22.703 39.5307 19.0236 39.5307 14.4707C39.5307 9.91778 43.0874 6.24871 47.4886 6.24871C48.7106 6.24871 49.8531 6.53648 50.8863 7.04008C50.9161 7.04008 50.936 7.06064 50.9658 7.07091C51.1247 7.15313 51.2936 7.22508 51.4625 7.27646C53.062 7.74923 54.7411 6.79342 55.1981 5.12847C55.5955 3.67934 54.9497 2.18911 53.7078 1.51079C53.6979 1.51079 53.6879 1.50051 53.678 1.49024C51.8003 0.53443 49.704 0 47.4886 0C39.7592 0 33.5002 6.47482 33.5002 14.4707C33.5002 22.4666 39.7592 28.9414 47.4886 28.9414C55.6849 28.9414 61.2981 22.7544 63.1957 14.6043C64.8449 8.40699 68.6102 6.23844 73.0014 6.23844C77.3926 6.23844 80.9593 9.91778 80.9593 14.4707C80.9593 15.1696 80.8798 15.8479 80.7208 16.4954C80.6811 16.6598 80.6314 16.8243 80.5817 16.9784L78.3762 24.9538C78.108 25.9096 78.3066 26.8859 78.8233 27.6362C79.2107 28.1912 79.7671 28.6125 80.4427 28.8181C82.0422 29.2909 83.7212 28.335 84.1683 26.6804C84.1683 26.6804 84.1683 26.6598 84.1683 26.6495L86.3341 18.8284C86.4135 18.5817 86.4831 18.3248 86.5526 18.0678C86.8308 16.9168 86.9898 15.7143 86.9898 14.4707C86.9898 13.2271 86.8308 12.0041 86.5526 10.8428Z" fill="white"/>
</g>
<defs>
<clipPath id="clip0_1335_8571">
<rect width="87" height="30" fill="white"/>
</clipPath>
</defs>
</svg>
