<?xml version="1.0" standalone="no"?>
<!DOCTYPE svg PUBLIC "-//W3C//DTD SVG 20010904//EN"
 "http://www.w3.org/TR/2001/REC-SVG-20010904/DTD/svg10.dtd">
<svg version="1.0" xmlns="http://www.w3.org/2000/svg"
 width="260.000000pt" height="260.000000pt" viewBox="0 0 260.000000 260.000000"
 preserveAspectRatio="xMidYMid meet">
<metadata>
Created by potrace 1.14, written by Peter Selinger 2001-2017
</metadata>
<g transform="translate(0.000000,260.000000) scale(0.100000,-0.100000)"
fill="#000000" stroke="none">
<path d="M0 1300 l0 -1300 1300 0 1300 0 0 1300 0 1300 -1300 0 -1300 0 0
-1300z m1670 1095 c376 -103 658 -393 761 -782 33 -123 37 -347 9 -483 -92
-448 -432 -780 -873 -850 -102 -17 -288 -8 -389 19 -184 48 -353 145 -486 280
l-79 80 -43 -157 c-60 -220 -78 -249 -170 -291 -137 -62 -288 31 -307 188 -6
51 -7 48 231 899 64 227 130 447 147 488 45 107 136 242 227 333 145 147 314
239 523 286 90 20 360 14 449 -10z"/>
<path d="M1304 1950 c-60 -13 -157 -54 -206 -88 -66 -45 -159 -149 -196 -219
-147 -277 -59 -637 196 -807 237 -157 532 -128 733 74 122 122 179 262 180
435 1 145 -34 255 -116 370 -73 102 -168 172 -295 217 -62 22 -230 33 -296 18z"/>
</g>
</svg>
