<?xml version="1.0" standalone="no"?>
<!DOCTYPE svg PUBLIC "-//W3C//DTD SVG 20010904//EN"
 "http://www.w3.org/TR/2001/REC-SVG-20010904/DTD/svg10.dtd">
<svg version="1.0" xmlns="http://www.w3.org/2000/svg"
 width="260.000000pt" height="260.000000pt" viewBox="0 0 260.000000 260.000000"
 preserveAspectRatio="xMidYMid meet">
<metadata>
Created by potrace 1.14, written by Peter Selinger 2001-2017
</metadata>
<g transform="translate(0.000000,260.000000) scale(0.100000,-0.100000)"
fill="#000000" stroke="none">
<path d="M123 1546 c-17 -8 -39 -25 -47 -39 -33 -50 -23 -142 19 -178 10 -8
49 -30 89 -49 63 -31 71 -39 74 -66 3 -34 -9 -49 -49 -59 -31 -8 -69 20 -72
53 -3 43 -81 44 -83 1 -3 -80 54 -132 146 -133 93 0 140 42 145 131 4 67 -35
110 -143 158 -65 28 -85 85 -38 106 39 18 76 4 83 -32 5 -28 8 -30 47 -27 40
3 41 4 38 36 -3 43 -16 68 -46 87 -33 22 -124 28 -163 11z"/>
<path d="M423 1550 c-17 -5 -18 -21 -18 -235 l0 -230 133 -2 132 -2 0 39 0 40
-89 0 c-100 0 -100 0 -92 82 l3 37 82 3 81 3 1 37 2 37 -79 -1 c-44 0 -82 1
-84 4 -7 7 -9 98 -1 105 4 4 44 8 89 8 l82 1 3 37 3 37 -65 1 c-36 0 -88 2
-115 2 -28 1 -58 0 -68 -3z"/>
<path d="M836 1540 c-6 -20 -136 -432 -141 -446 -2 -7 12 -11 38 -10 41 1 42
2 58 51 l16 50 76 3 75 2 13 -50 c7 -27 15 -50 18 -51 32 -5 81 -5 81 0 0 4
-15 54 -33 111 -19 58 -51 160 -72 227 l-38 121 -43 4 c-32 2 -44 -1 -48 -12z
m94 -272 c0 -5 -22 -8 -49 -8 l-50 0 15 52 c34 111 34 111 60 33 13 -38 24
-73 24 -77z"/>
<path d="M1128 1552 c-10 -2 -18 -11 -19 -20 -6 -156 -2 -442 6 -443 6 0 25
-2 43 -4 30 -3 32 -1 33 28 0 18 1 64 2 102 l2 70 63 3 62 3 1 -63 c2 -152 -1
-143 44 -143 l40 0 3 229 c1 146 -1 232 -8 236 -5 3 -26 4 -45 2 l-35 -4 1
-52 c1 -28 1 -68 0 -88 l-1 -38 -66 0 -66 0 4 90 c1 50 1 90 -2 91 -23 4 -48
4 -62 1z"/>
<path d="M1755 1552 c-41 -3 -41 -3 -86 -93 l-45 -91 -44 91 -45 91 -49 0
c-37 0 -46 -3 -39 -12 6 -7 38 -67 72 -133 l61 -120 0 -98 c0 -79 3 -97 15
-98 8 -1 27 -2 42 -3 l28 -1 0 100 1 100 63 120 c35 66 68 125 73 132 12 15 1
19 -47 15z"/>
<path d="M1858 1552 c-21 -4 -20 5 -20 -214 0 -186 8 -218 68 -248 36 -18 121
-17 159 1 58 28 65 56 66 260 0 101 0 189 0 194 -1 6 -18 9 -41 7 l-40 -4 0
-177 c0 -201 -4 -215 -64 -215 -20 0 -42 6 -49 12 -8 9 -14 69 -17 199 -5 178
-6 186 -25 188 -11 0 -28 -1 -37 -3z"/>
<path d="M2238 1552 l-36 -3 -1 -230 c0 -194 2 -229 14 -230 8 -1 27 -2 43 -3
l27 -1 0 83 0 83 35 -39 c19 -21 53 -58 74 -82 34 -38 45 -43 82 -45 24 -1 48
1 53 4 5 4 -12 29 -37 57 -48 51 -101 112 -136 152 -19 22 -19 22 45 94 35 40
81 90 101 112 20 22 35 43 33 46 -2 3 -26 3 -54 2 -50 -4 -53 -6 -120 -83 -39
-43 -72 -75 -74 -71 -2 4 -3 40 -2 80 1 40 -1 74 -4 75 -3 1 -23 1 -43 -1z"/>
</g>
</svg>
